<?xml version="1.0" encoding="UTF-8"?>
<svg xmlns="http://www.w3.org/2000/svg" id="Layer_1" data-name="Layer 1" viewBox="0 0 24 24">
  <path d="M22.938,12.904c-.072-.175-1.807-4.325-4.665-7.19C15.442,2.877,12.375,1.137,12.245,1.064c-.149-.084-.331-.085-.482-.005-.122,.066-3.034,1.646-6.036,4.655C2.678,8.771,1.123,12.748,1.058,12.916c-.066,.172-.033,.367,.088,.506,.018,.021,1.78,2.056,4.581,4.864,2.831,2.837,5.898,4.578,6.028,4.65,.076,.043,.161,.064,.245,.064,.082,0,.163-.02,.237-.06,.122-.066,3.034-1.646,6.036-4.655,2.989-2.997,4.568-4.848,4.583-4.867,.122-.143,.153-.341,.081-.515Zm-1.302-.446l-5.024-1.436L12.974,2.699c1.146,.761,2.928,2.055,4.591,3.722,1.976,1.98,3.422,4.692,4.07,6.038Zm-9.635,2.564l-3.664-3.672L12,2.967l3.664,8.383-3.664,3.672ZM6.435,6.42c1.746-1.75,3.488-3.014,4.601-3.745l-3.648,8.346-5.043,1.442c.608-1.306,1.991-3.939,4.09-6.043Zm-3.921,7.036l5.067-1.449,3.927,3.937c-.005,.027-.008,.055-.008,.084v5.581c-1.077-.686-3.15-2.111-5.065-4.03-1.812-1.816-3.184-3.304-3.921-4.123Zm15.051,4.123c-2.013,2.018-4.021,3.389-5.065,4.042v-5.594c0-.029-.003-.057-.008-.084l3.927-3.937,5.07,1.45c-.707,.788-2.027,2.22-3.925,4.122Z"/>
</svg>
